<?xml version="1.0" encoding="UTF-8" standalone="no"?>
<svg
   height="18"
   viewBox="0 -960 840 720"
   width="21"
   fill="#e8eaed"
   version="1.1"
   id="svg1"
   sodipodi:docname="mailwph-menu-icon.svg"
   xmlns:inkscape="http://www.inkscape.org/namespaces/inkscape"
   xmlns:sodipodi="http://sodipodi.sourceforge.net/DTD/sodipodi-0.dtd"
   xmlns="http://www.w3.org/2000/svg"
   xmlns:svg="http://www.w3.org/2000/svg">
  <defs
     id="defs1" />
  <sodipodi:namedview
     id="namedview1"
     pagecolor="#ffffff"
     bordercolor="#000000"
     borderopacity="0.25"
     inkscape:showpageshadow="2"
     inkscape:pageopacity="0.0"
     inkscape:pagecheckerboard="0"
     inkscape:deskcolor="#d1d1d1" />
  <path
     d="m 558,-240 -170,-170 56,-56 114,114 226,-226 56,56 z M 400,-680 720,-880 H 80 Z m 0,80 -320,-200 v 400 h 206 l 80,80 H 80 Q 47,-320 23.5,-343.5 0,-367 0,-400 V -880 Q 0,-913 23.5,-936.5 47,-960 80,-960 h 640 q 33,0 56.5,23.5 23.5,23.5 23.5,56.5 v 174 l -80,80 v -174 z m 0,0 z m 0,-80 z m 0,80 z"
     id="path1"
     style="fill:#ffcc00" />
</svg>
