<?xml version="1.0" encoding="UTF-8" standalone="no"?>
<svg
   height="18.173698"
   viewBox="0 -960 724.56573 726.94794"
   width="18.114143"
   fill="#e8eaed"
   version="1.1"
   id="svg1"
   sodipodi:docname="pn-customers-manager-menu-icon.svg"
   xmlns:inkscape="http://www.inkscape.org/namespaces/inkscape"
   xmlns:sodipodi="http://sodipodi.sourceforge.net/DTD/sodipodi-0.dtd"
   xmlns="http://www.w3.org/2000/svg"
   xmlns:svg="http://www.w3.org/2000/svg">
  <defs
     id="defs1" />
  <sodipodi:namedview
     id="namedview1"
     pagecolor="#ffffff"
     bordercolor="#000000"
     borderopacity="0.25"
     inkscape:showpageshadow="2"
     inkscape:pageopacity="0.0"
     inkscape:pagecheckerboard="0"
     inkscape:deskcolor="#d1d1d1" />
  <path
     d="m 326.05459,-233.05211 v -80.77199 h 289.8263 v -286.74055 q 0,-118.12904 -73.81513,-200.4155 -73.81514,-82.28646 -179.78288,-82.28646 -105.96774,0 -179.78288,82.28646 -73.81514,82.28646 -73.81514,200.4155 v 246.35456 H 72.456575 q -29.888337,0 -51.172456,-23.72677 Q 1.6845715e-7,-401.66363 1.6845715e-7,-434.98208 v -80.77199 q 0,-21.20264 9.50992503154285,-39.88117 9.5099258,-18.67852 26.7183628,-29.78467 l 2.717121,-53.51144 q 7.245658,-68.65619 35.775436,-127.21588 28.529775,-58.55969 71.550865,-101.97463 43.02109,-43.41495 98.72209,-67.64654 Q 300.69479,-960 362.28288,-960 q 61.58809,0 116.83623,24.2316 55.24814,24.23159 98.72208,67.14171 43.47395,42.91012 71.55087,101.46981 28.07692,58.55969 36.22829,127.21588 l 2.71712,52.50179 q 17.20844,9.08685 26.71836,27.26055 9.50993,18.1737 9.50993,38.36669 v 92.88779 q 0,20.193 -9.50993,38.36669 -9.50992,18.1737 -26.71836,27.26055 v 49.47284 q 0,33.31845 -21.28412,57.04522 -21.28412,23.72677 -51.17246,23.72677 z m -72.45658,-282.70196 q -15.39702,0 -25.81265,-11.61097 -10.41563,-11.61097 -10.41563,-28.77502 0,-17.16405 10.41563,-28.77502 10.41563,-11.61097 25.81265,-11.61097 15.39703,0 25.81266,11.61097 10.41563,11.61097 10.41563,28.77502 0,17.16405 -10.41563,28.77502 -10.41563,11.61097 -25.81266,11.61097 z m 217.36973,0 q -15.39702,0 -25.81265,-11.61097 -10.41564,-11.61097 -10.41564,-28.77502 0,-17.16405 10.41564,-28.77502 10.41563,-11.61097 25.81265,-11.61097 15.39702,0 25.81266,11.61097 10.41563,11.61097 10.41563,28.77502 0,17.16405 -10.41563,28.77502 -10.41564,11.61097 -25.81266,11.61097 z m -325.14888,-62.59829 q -6.33995,-107.02288 57.96526,-183.75627 64.30521,-76.73339 160.31017,-76.73339 80.60794,0 141.74318,57.04522 61.13523,57.04521 73.81514,145.8944 -82.41936,-1.00965 -151.70596,-49.47284 -69.2866,-48.46319 -106.4206,-131.25448 -14.49131,80.77199 -61.13523,143.8751 -46.64392,63.10312 -114.57196,94.40226 z"
     id="path1"
     style="fill:#0000aa;stroke-width:0.956268" />
</svg>
