<?xml version="1.0" encoding="UTF-8" standalone="no"?>
<svg
   height="18"
   viewBox="0 -960 800 720"
   width="20"
   fill="#e8eaed"
   version="1.1"
   id="svg1"
   sodipodi:docname="support_agent_24dp_E8EAED_FILL0_wght400_GRAD0_opsz24.svg"
   xmlns:inkscape="http://www.inkscape.org/namespaces/inkscape"
   xmlns:sodipodi="http://sodipodi.sourceforge.net/DTD/sodipodi-0.dtd"
   xmlns="http://www.w3.org/2000/svg"
   xmlns:svg="http://www.w3.org/2000/svg">
  <defs
     id="defs1" />
  <sodipodi:namedview
     id="namedview1"
     pagecolor="#ffffff"
     bordercolor="#000000"
     borderopacity="0.25"
     inkscape:showpageshadow="2"
     inkscape:pageopacity="0.0"
     inkscape:pagecheckerboard="0"
     inkscape:deskcolor="#d1d1d1" />
  <path
     d="m 360,-240 v -80 H 680 V -604 Q 680,-721 598.5,-802.5 517,-884 400,-884 283,-884 201.5,-802.5 120,-721 120,-604 v 244 H 80 Q 47,-360 23.5,-383.5 0,-407 0,-440 v -80 Q 0,-541 10.5,-559.5 21,-578 40,-589 l 3,-53 q 8,-68 39.5,-126 31.5,-58 79,-101 47.5,-43 109,-67 61.5,-24 129.5,-24 68,0 129,24 61,24 109,66.5 48,42.5 79,100.5 31,58 40,126 l 3,52 q 19,9 29.5,27 10.5,18 10.5,38 v 92 q 0,20 -10.5,38 -10.5,18 -29.5,27 v 49 q 0,33 -23.5,56.5 Q 713,-240 680,-240 Z m -80,-280 q -17,0 -28.5,-11.5 Q 240,-543 240,-560 q 0,-17 11.5,-28.5 11.5,-11.5 28.5,-11.5 17,0 28.5,11.5 11.5,11.5 11.5,28.5 0,17 -11.5,28.5 Q 297,-520 280,-520 Z m 240,0 q -17,0 -28.5,-11.5 Q 480,-543 480,-560 q 0,-17 11.5,-28.5 11.5,-11.5 28.5,-11.5 17,0 28.5,11.5 11.5,11.5 11.5,28.5 0,17 -11.5,28.5 Q 537,-520 520,-520 Z m -359,-62 q -7,-106 64,-182 71,-76 177,-76 89,0 156.5,56.5 Q 626,-727 640,-639 549,-640 472.5,-688 396,-736 355,-818 339,-738 287.5,-675.5 236,-613 161,-582 Z"
     id="path1"
     style="fill:#0000aa" />
</svg>
